<?xml version="1.0" encoding="UTF-8" standalone="no"?>
<svg
   xmlns:dc="http://purl.org/dc/elements/1.1/"
   xmlns:cc="http://creativecommons.org/ns#"
   xmlns:rdf="http://www.w3.org/1999/02/22-rdf-syntax-ns#"
   xmlns:svg="http://www.w3.org/2000/svg"
   xmlns="http://www.w3.org/2000/svg"
   xmlns:sodipodi="http://sodipodi.sourceforge.net/DTD/sodipodi-0.dtd"
   xmlns:inkscape="http://www.inkscape.org/namespaces/inkscape"
   version="1.0"
   width="356.000000pt"
   height="215.000000pt"
   viewBox="0 0 356.000000 215.000000"
   preserveAspectRatio="xMidYMid meet"
   id="svg4491"
   sodipodi:docname="logo-small-2-no-padding_colour.svg"
   inkscape:version="0.92.1 r15371">
  <metadata
     id="metadata4497">
    <rdf:RDF>
      <cc:Work
         rdf:about="">
        <dc:format>image/svg+xml</dc:format>
        <dc:type
           rdf:resource="http://purl.org/dc/dcmitype/StillImage" />
        <dc:title></dc:title>
      </cc:Work>
    </rdf:RDF>
  </metadata>
  <defs
     id="defs4495" />
  <sodipodi:namedview
     pagecolor="#ffffff"
     bordercolor="#666666"
     borderopacity="1"
     objecttolerance="10"
     gridtolerance="10"
     guidetolerance="10"
     inkscape:pageopacity="0"
     inkscape:pageshadow="2"
     inkscape:window-width="1920"
     inkscape:window-height="1001"
     id="namedview4493"
     showgrid="false"
     inkscape:zoom="2.8186047"
     inkscape:cx="228.94593"
     inkscape:cy="141.61199"
     inkscape:window-x="-9"
     inkscape:window-y="-9"
     inkscape:window-maximized="1"
     inkscape:current-layer="svg4491" />
  <g
     transform="translate(0.000000,215.000000) scale(0.100000,-0.100000)"
     fill="#000000"
     stroke="none"
     id="g4489">
    <path
       d="M632 1977 l-122 -122 0 -352 c0 -311 -2 -352 -16 -357 -9 -3 -53 -6 -99 -6 -73 0 -86 3 -95 19 -6 12 -10 114 -10 260 l0 241 -120 0 -120 0 2 -812 3 -813 118 -3 117 -3 0 453 c0 249 4 459 8 466 6 9 35 12 108 10 l99 -3 5 -460 5 -460 580 0 580 0 5 695 5 695 335 0 335 0 3 -134 c2 -101 -1 -136 -10 -143 -7 -4 -111 -8 -231 -8 l-217 0 2 -552 3 -553 813 -3 812 -2 0 555 0 555 -214 0 c-118 0 -221 3 -230 6 -14 5 -16 57 -16 482 l0 477 -125 -125 -125 -125 0 -782 0 -783 -23 -5 c-12 -3 -58 -5 -102 -3 l-80 3 -3 688 -2 687 -698 0 -697 0 -110 -110 c-75 -75 -104 -111 -94 -115 8 -2 104 -6 214 -7 l200 -3 0 -570 0 -570 -80 -3 c-44 -2 -90 0 -102 3 l-23 5 -2 293 -3 292 -120 0 -120 0 -5 -295 -5 -295 -80 -3 c-44 -2 -90 0 -102 3 l-23 5 0 296 0 297 -85 87 -86 87 86 91 85 92 0 430 c0 236 -1 430 -3 430 -1 0 -57 -55 -125 -123z m1726 -1354 l2 -333 -22 -5 c-13 -3 -59 -5 -103 -3 l-80 3 -3 325 c-1 179 0 331 3 338 3 9 29 12 102 10 l98 -3 3 -332z m920 0 l-3 -338 -100 0 -100 0 -3 325 c-1 179 0 330 3 337 3 9 33 13 105 13 l100 0 -2 -337z"
       id="path4485"
       style="fill:#2863a5;fill-opacity:0" />
    <path
       d="M1023 1227 c-35 -35 -63 -68 -63 -75 0 -13 125 -142 138 -142 4 0 39 32 77 70 l69 70 -69 70 c-38 39 -74 70 -80 70 -5 -1 -38 -29 -72 -63z"
       id="path4487"
       style="fill:#cb2230;fill-opacity:1" />
    <path
       style="fill:#2863a5;fill-opacity:1;stroke:#00634d;stroke-width:0.70957094;stroke-opacity:0.58823529"
       d="M 14.959497,281.85152 8.1540094,281.6209 7.6863946,264.50064 C 7.4292065,255.08449 7.2187798,206.56078 7.2187798,156.67018 V 65.959999 H 22.757953 38.297126 l 0.335136,32.108086 c 0.184323,17.659445 0.566159,32.800375 0.848523,33.646525 0.890211,2.66763 3.651751,3.19303 15.492605,2.94755 6.064013,-0.1257 11.270173,-0.47415 11.569245,-0.77431 1.302705,-1.30745 1.644895,-11.96127 1.671225,-52.03239 L 68.24188,39.211319 84.384619,23.315857 100.52736,7.4203955 l 0.18163,56.9990165 0.18162,56.999018 -11.345501,12.08677 -11.3455,12.08677 11.341264,11.73518 11.341277,11.73518 v 39.59655 39.59655 l 2.66089,0.56433 c 2.36318,0.50119 24.93095,0.5469 25.39423,0.0514 0.10114,-0.10818 0.41874,-17.83839 0.70576,-39.40048 l 0.52187,-39.20379 h 15.79214 15.79215 l 0.25628,38.61334 c 0.14095,21.23734 0.49563,38.8527 0.78818,39.14525 1.14401,1.144 9.12488,1.70352 18.09262,1.26843 l 9.40182,-0.45616 V 172.65468 96.471551 l -3.72525,-0.04307 c -17.2542,-0.199525 -51.01201,-1.239834 -51.35478,-1.582599 -0.65679,-0.6568 1.69613,-3.37826 14.39162,-16.645776 L 161.31205,65.96 h 93.14771 93.1477 l 0.35809,91.19873 c 0.19694,50.15931 0.53121,91.37188 0.74281,91.58348 0.62903,0.62902 24.15565,0.67989 25.89078,0.056 l 1.59654,-0.57409 V 143.78181 39.339518 l 16.32013,-16.308561 16.32013,-16.308562 0.049,52.502465 c 0.0517,55.43612 0.51729,72.86526 1.98571,74.33489 0.65654,0.65709 8.16903,0.9252 30.28556,1.08085 l 29.41244,0.207 v 73.87086 73.87086 l -108.03217,-0.52226 c -59.4177,-0.28724 -108.0697,-0.57401 -108.11555,-0.63727 -0.0458,-0.0632 -0.2562,-33.05907 -0.46744,-73.32404 l -0.38409,-73.20904 29.67881,-0.23156 c 16.32334,-0.12735 29.94458,-0.4971 30.26942,-0.82165 0.32484,-0.32455 0.68558,-8.86601 0.80162,-18.98103 l 0.21099,-18.390919 h -44.97537 -44.97538 l -0.47076,36.304819 c -0.25893,19.96765 -0.47077,48.65294 -0.47077,63.7451 0,15.09215 -0.21158,40.42454 -0.47018,56.29419 l -0.47018,28.85391 H 145.8245 68.951453 l -0.01814,-8.69224 c -0.03982,-19.08682 -1.371207,-113.56069 -1.603643,-113.79312 -0.136667,-0.13667 -6.070151,-0.30585 -13.185522,-0.37597 -11.337005,-0.11171 -13.08622,0.0217 -14.143252,1.07853 -1.112525,1.11233 -1.225161,5.91628 -1.450154,61.84919 l -0.243941,60.64318 -8.270911,-0.1485 c -4.549001,-0.0817 -11.33338,-0.25229 -15.076398,-0.37912 z m 298.610693,-33.25886 1.59068,-0.43538 -0.44748,-44.44435 c -0.24611,-24.44439 -0.49842,-44.51303 -0.56068,-44.59697 -0.32486,-0.43796 -24.40807,-0.36131 -25.76644,0.082 l -1.59653,0.52104 v 44.6253 44.62531 l 5.49917,0.28997 c 6.50697,0.34312 19.02426,-0.0492 21.28128,-0.66692 z m 123.65095,-33.80015 c 0.001,-18.83024 0.2126,-39.30606 0.46956,-45.50181 l 0.4672,-11.26503 -13.06445,0.34268 c -7.18544,0.18847 -13.62323,0.58212 -14.30619,0.87476 -1.16382,0.4987 -1.24175,3.33293 -1.24175,45.15914 v 44.62706 h 13.83664 13.83663 l 0.002,-34.2368 z"
       id="path5052"
       inkscape:connector-curvature="0"
       transform="matrix(7.5000002,0,0,-7.5000002,0,2150)" />
  </g>
</svg>
